# xmcd CD database file
#
# Track frame offsets:
#	150
#	18260
#	42557
#	59927
#	77992
#	104337
#	129505
#	149452
#	172880
#	188852
#
# Disc length: 2709 seconds
#
# Revision: 4
# Processed by: cddbd v1.5.2PL0 Copyright (c) Steve Scherf et al.
# Submitted via: CDex 1.70beta2
#
DISCID=900a930a
DTITLE=Al Jarreau - L Is For Lover
DYEAR=1986
DGENRE=Jazz
TTITLE0=Tell Me What I Gotta Do
TTITLE1=L Is For Lover
TTITLE2=Says
TTITLE3=Pleasure
TTITLE4=Golden Girl
TTITLE5=Across The Midnight Sky
TTITLE6=(We Got) Telepathy
TTITLE7=Give A Little More Lovin'
TTITLE8=No Ordinary Romance
TTITLE9=Real Tight
EXTD=YEAR: 1986
EXTT0=
EXTT1=
EXTT2=
EXTT3=
EXTT4=
EXTT5=
EXTT6=
EXTT7=
EXTT8=
EXTT9=
PLAYORDER=
